<?xml version="1.0" encoding="UTF-8"?>
<svg xmlns="http://www.w3.org/2000/svg" xmlns:xlink="http://www.w3.org/1999/xlink" width="300px" height="px" viewBox="0 0 300 300" version="1.1">
<g id="surface1">
<path style=" stroke:none;fill-rule:nonzero;fill:rgb(0%,0%,0%);fill-opacity:1;" d="M 224.414062 47.859375 C 239.742188 47.875 252.15625 60.316406 252.140625 75.644531 C 252.125 90.972656 239.683594 103.386719 224.355469 103.371094 C 209.027344 103.355469 196.613281 90.914062 196.628906 75.585938 C 196.644531 60.257812 209.085938 47.84375 224.414062 47.859375 Z M 47.851562 224.414062 C 47.867188 239.742188 60.304688 252.160156 75.632812 252.144531 C 90.960938 252.132812 103.378906 239.695312 103.363281 224.367188 C 103.351562 209.039062 90.914062 196.621094 75.585938 196.632812 C 60.257812 196.648438 47.839844 209.085938 47.851562 224.414062 Z M 250.78125 27.875 L 49.21875 27.875 C 37.4375 27.890625 27.890625 37.4375 27.875 49.21875 L 27.875 250.78125 C 27.890625 262.5625 37.4375 272.109375 49.21875 272.125 L 250.78125 272.125 C 262.5625 272.109375 272.109375 262.5625 272.125 250.78125 L 272.125 49.21875 C 272.109375 37.4375 262.5625 27.890625 250.78125 27.871094 M 250.78125 16.15625 C 269.027344 16.191406 283.808594 30.972656 283.84375 49.21875 L 283.84375 250.78125 C 283.808594 269.027344 269.027344 283.808594 250.78125 283.84375 L 49.21875 283.84375 C 30.972656 283.808594 16.191406 269.027344 16.15625 250.78125 L 16.15625 49.21875 C 16.191406 30.972656 30.972656 16.191406 49.21875 16.15625 Z M 250.78125 16.15625 "/>
</g>
</svg>
