<?xml version="1.0" encoding="UTF-8"?>
<svg xmlns="http://www.w3.org/2000/svg" xmlns:xlink="http://www.w3.org/1999/xlink" width="300px" height="px" viewBox="0 0 300 300" version="1.1">
<g id="surface1">
<path style=" stroke:none;fill-rule:nonzero;fill:rgb(0%,0%,0%);fill-opacity:1;" d="M 177.460938 149.707031 C 177.460938 165.035156 165.035156 177.460938 149.707031 177.460938 C 134.378906 177.460938 121.953125 165.035156 121.953125 149.707031 C 121.953125 134.378906 134.378906 121.953125 149.707031 121.953125 C 165.035156 121.953125 177.460938 134.378906 177.460938 149.707031 Z M 224.121094 47.566406 C 208.785156 47.550781 196.339844 59.976562 196.335938 75.3125 C 196.332031 90.648438 208.765625 103.082031 224.101562 103.078125 C 239.4375 103.074219 251.863281 90.628906 251.847656 75.292969 C 251.832031 59.988281 239.425781 47.582031 224.121094 47.566406 Z M 75.292969 196.339844 C 59.96875 196.355469 47.554688 208.78125 47.5625 224.105469 C 47.566406 239.429688 59.984375 251.847656 75.308594 251.851562 C 90.632812 251.859375 103.058594 239.445312 103.070312 224.121094 C 103.078125 216.75 100.152344 209.683594 94.941406 204.472656 C 89.730469 199.261719 82.664062 196.335938 75.292969 196.34375 Z M 283.886719 250.796875 C 283.882812 269.074219 269.066406 283.886719 250.792969 283.886719 L 49.230469 283.886719 C 30.945312 283.898438 16.113281 269.078125 16.113281 250.792969 L 16.113281 49.230469 C 16.101562 30.945312 30.921875 16.113281 49.207031 16.113281 L 250.769531 16.113281 C 269.054688 16.101562 283.886719 30.921875 283.886719 49.207031 Z M 272.167969 49.234375 C 272.175781 43.5625 269.925781 38.117188 265.917969 34.101562 C 261.910156 30.089844 256.46875 27.832031 250.792969 27.832031 L 49.230469 27.832031 C 43.558594 27.824219 38.113281 30.074219 34.101562 34.085938 C 30.085938 38.09375 27.832031 43.535156 27.832031 49.207031 L 27.832031 250.769531 C 27.824219 256.441406 30.074219 261.886719 34.085938 265.898438 C 38.09375 269.914062 43.535156 272.167969 49.207031 272.167969 L 250.769531 272.167969 C 256.441406 272.175781 261.886719 269.925781 265.898438 265.914062 C 269.914062 261.90625 272.167969 256.464844 272.167969 250.792969 Z M 272.167969 49.234375 "/>
</g>
</svg>
