<?xml version="1.0" encoding="UTF-8"?>
<svg xmlns="http://www.w3.org/2000/svg" xmlns:xlink="http://www.w3.org/1999/xlink" width="300px" height="px" viewBox="0 0 300 300" version="1.1">
<g id="surface1">
<path style=" stroke:none;fill-rule:nonzero;fill:rgb(0%,0%,0%);fill-opacity:1;" d="M 46.992188 16.40625 C 32.285156 20.273438 20.15625 32.460938 16.40625 47.226562 C 15.234375 51.621094 15.234375 54.199219 15.234375 150 C 15.234375 245.800781 15.234375 248.378906 16.40625 252.773438 C 20.214844 267.65625 32.34375 279.785156 47.226562 283.59375 C 51.621094 284.765625 54.199219 284.765625 149.941406 284.765625 C 234.960938 284.765625 248.671875 284.648438 251.835938 283.886719 C 267.304688 280.253906 279.667969 268.066406 283.59375 252.773438 C 284.765625 248.378906 284.765625 245.800781 284.765625 150 C 284.765625 54.199219 284.765625 51.621094 283.59375 47.226562 C 279.667969 31.875 267.304688 19.746094 251.835938 16.113281 C 248.613281 15.351562 235.019531 15.234375 149.707031 15.292969 C 54.84375 15.292969 51.09375 15.351562 46.992188 16.40625 Z M 252.1875 28.59375 C 261.152344 31.992188 268.007812 38.847656 271.40625 47.753906 L 272.753906 51.269531 L 272.929688 148.242188 C 273.046875 243.867188 273.046875 245.214844 271.875 249.84375 C 269.355469 259.921875 261.855469 268.007812 251.953125 271.40625 L 248.144531 272.753906 L 150 272.753906 C 68.203125 272.753906 51.445312 272.636719 49.511719 271.933594 C 37.5 267.832031 29.707031 259.160156 27.480469 247.617188 C 26.777344 243.808594 26.777344 56.191406 27.480469 52.382812 C 29.824219 40.019531 39.667969 30 51.855469 27.539062 C 53.144531 27.304688 97.96875 27.128906 151.464844 27.1875 L 248.730469 27.246094 Z M 252.1875 28.59375 "/>
<path style=" stroke:none;fill-rule:nonzero;fill:rgb(0%,0%,0%);fill-opacity:1;" d="M 145.605469 123.105469 C 134.472656 124.6875 124.6875 134.707031 123.105469 146.015625 C 120.996094 160.898438 131.367188 174.84375 146.074219 176.894531 C 171.5625 180.46875 187.382812 149.882812 169.628906 131.308594 C 163.300781 124.6875 154.804688 121.757812 145.605469 123.105469 Z M 145.605469 123.105469 "/>
</g>
</svg>
