<?xml version="1.0" encoding="UTF-8"?>
<svg xmlns="http://www.w3.org/2000/svg" xmlns:xlink="http://www.w3.org/1999/xlink" width="300px" height="px" viewBox="0 0 300 300" version="1.1">
<g id="surface1">
<path style=" stroke:none;fill-rule:nonzero;fill:rgb(0%,0%,0%);fill-opacity:1;" d="M 46.992188 16.40625 C 32.285156 20.273438 20.15625 32.460938 16.40625 47.226562 C 15.234375 51.621094 15.234375 54.199219 15.234375 150 C 15.234375 245.800781 15.234375 248.378906 16.40625 252.773438 C 20.214844 267.65625 32.34375 279.785156 47.226562 283.59375 C 51.621094 284.765625 54.199219 284.765625 149.941406 284.765625 C 234.960938 284.765625 248.671875 284.648438 251.835938 283.886719 C 267.304688 280.253906 279.667969 268.066406 283.59375 252.773438 C 284.765625 248.378906 284.765625 245.800781 284.765625 150 C 284.765625 54.199219 284.765625 51.621094 283.59375 47.226562 C 279.667969 31.875 267.304688 19.746094 251.835938 16.113281 C 248.613281 15.351562 235.019531 15.234375 149.707031 15.292969 C 54.84375 15.292969 51.09375 15.351562 46.992188 16.40625 Z M 252.1875 28.59375 C 261.152344 31.992188 268.007812 38.847656 271.40625 47.753906 L 272.753906 51.269531 L 272.929688 148.242188 C 273.046875 243.867188 273.046875 245.214844 271.875 249.84375 C 269.355469 259.921875 261.855469 268.007812 251.953125 271.40625 L 248.144531 272.753906 L 150 272.753906 C 68.203125 272.753906 51.445312 272.636719 49.511719 271.933594 C 37.5 267.832031 29.707031 259.160156 27.480469 247.617188 C 26.777344 243.808594 26.777344 56.191406 27.480469 52.382812 C 29.824219 40.019531 39.667969 30 51.855469 27.539062 C 53.144531 27.304688 97.96875 27.128906 151.464844 27.1875 L 248.730469 27.246094 Z M 252.1875 28.59375 "/>
<path style=" stroke:none;fill-rule:nonzero;fill:rgb(0%,0%,0%);fill-opacity:1;" d="M 71.953125 52.441406 C 67.03125 53.789062 63.632812 55.78125 59.707031 59.707031 C 57.597656 61.816406 55.253906 64.804688 54.550781 66.386719 C 47.695312 80.742188 53.144531 96.679688 67.324219 103.535156 C 71.367188 105.527344 72.304688 105.761719 77.636719 105.9375 C 82.5 106.113281 84.140625 105.9375 87.246094 104.882812 C 94.921875 102.304688 100.019531 97.734375 103.652344 90.234375 C 105.703125 85.957031 105.761719 85.722656 105.761719 78.75 C 105.761719 71.777344 105.761719 71.660156 103.535156 67.265625 C 101.074219 62.167969 96.5625 57.304688 92.167969 54.960938 C 86.308594 51.738281 78.105469 50.742188 71.953125 52.441406 Z M 71.953125 52.441406 "/>
<path style=" stroke:none;fill-rule:nonzero;fill:rgb(0%,0%,0%);fill-opacity:1;" d="M 213.925781 52.5 C 206.425781 54.492188 200.097656 59.882812 196.464844 67.265625 C 194.238281 71.660156 194.238281 71.777344 194.238281 78.75 C 194.238281 85.722656 194.296875 85.898438 196.40625 90.410156 C 199.335938 96.445312 203.554688 100.664062 209.589844 103.59375 C 214.101562 105.703125 214.277344 105.761719 221.25 105.761719 C 228.222656 105.761719 228.339844 105.761719 232.734375 103.535156 C 246.914062 96.5625 252.304688 80.683594 245.449219 66.386719 C 243.574219 62.519531 237.1875 56.25 233.144531 54.316406 C 227.050781 51.445312 220.195312 50.800781 213.925781 52.5 Z M 213.925781 52.5 "/>
<path style=" stroke:none;fill-rule:nonzero;fill:rgb(0%,0%,0%);fill-opacity:1;" d="M 74.707031 123.105469 C 69.609375 123.867188 63.457031 126.972656 59.589844 130.839844 C 46.464844 143.964844 50.273438 166.464844 67.03125 174.375 C 85.371094 183.046875 106.054688 170.15625 106.054688 150 C 106.054688 133.242188 91.40625 120.703125 74.707031 123.105469 Z M 74.707031 123.105469 "/>
<path style=" stroke:none;fill-rule:nonzero;fill:rgb(0%,0%,0%);fill-opacity:1;" d="M 217.089844 123.046875 C 207.714844 124.511719 200.683594 129.902344 196.347656 138.867188 C 194.296875 143.144531 194.238281 143.4375 194.238281 150 C 194.238281 156.5625 194.296875 156.855469 196.347656 161.132812 C 201.328125 171.445312 209.882812 177.011719 220.898438 177.070312 C 234.667969 177.128906 245.683594 167.8125 247.96875 154.21875 C 249.726562 143.789062 244.6875 132.65625 235.722656 126.972656 C 230.683594 123.75 222.949219 122.167969 217.089844 123.046875 Z M 217.089844 123.046875 "/>
<path style=" stroke:none;fill-rule:nonzero;fill:rgb(0%,0%,0%);fill-opacity:1;" d="M 70.605469 195 C 54.316406 200.625 47.109375 218.085938 54.550781 233.613281 C 56.308594 237.304688 62.8125 243.75 66.503906 245.449219 C 73.007812 248.496094 79.453125 249.199219 85.839844 247.558594 C 93.515625 245.507812 99.84375 240.292969 103.535156 232.734375 C 105.761719 228.339844 105.761719 228.222656 105.761719 221.25 C 105.761719 214.277344 105.703125 214.042969 103.652344 209.765625 C 100.019531 202.265625 94.921875 197.695312 87.421875 195.175781 C 82.792969 193.59375 74.882812 193.535156 70.605469 195 Z M 70.605469 195 "/>
<path style=" stroke:none;fill-rule:nonzero;fill:rgb(0%,0%,0%);fill-opacity:1;" d="M 213.574219 194.765625 C 204.433594 197.753906 198.046875 203.964844 195.117188 212.753906 C 194.0625 215.859375 193.886719 217.5 194.0625 222.421875 C 194.238281 227.871094 194.414062 228.691406 196.464844 232.734375 C 203.378906 246.738281 219.082031 252.246094 233.144531 245.683594 C 237.1875 243.75 243.574219 237.480469 245.449219 233.613281 C 252.304688 219.316406 246.914062 203.4375 232.734375 196.464844 C 228.574219 194.355469 227.929688 194.238281 222.128906 194.121094 C 218.144531 194.003906 215.039062 194.238281 213.574219 194.765625 Z M 213.574219 194.765625 "/>
</g>
</svg>
